<?xml version="1.0" encoding="UTF-8" standalone="no"?>
<svg
   xmlns:dc="http://purl.org/dc/elements/1.1/"
   xmlns:cc="http://creativecommons.org/ns#"
   xmlns:rdf="http://www.w3.org/1999/02/22-rdf-syntax-ns#"
   xmlns:svg="http://www.w3.org/2000/svg"
   xmlns="http://www.w3.org/2000/svg"
   viewBox="0 0 793.70081 151.18108"
   height="151.18108"
   width="793.70081"
   xml:space="preserve"
   id="svg2"
   version="1.1"><metadata
     id="metadata8"><rdf:RDF><cc:Work
         rdf:about=""><dc:format>image/svg+xml</dc:format><dc:type
           rdf:resource="http://purl.org/dc/dcmitype/StillImage" /></cc:Work></rdf:RDF></metadata><defs
     id="defs6" /><g
     transform="matrix(1.3333333,0,0,-1.3333333,0,151.18107)"
     id="g10"><g
       id="g12"><path
         id="path14"
         style="fill:#201f1f;fill-opacity:1;fill-rule:nonzero;stroke:none"
         d="m 10.4023,29.8429 4.7928,0.6653 22.5431,58.2548 h 7.484 l 22.15,-58.2548 4.7324,-0.6653 v -5.5792 h -18.506 v 5.5792 l 4.8682,0.8467 -4.2485,11.8686 H 28.3944 L 24.0097,30.6896 28.8782,29.8429 V 24.2637 H 10.4023 Z m 20.6836,20.018 H 51.5574 L 41.5483,77.5446 h -0.2722 z" /><path
         id="path16"
         style="fill:#201f1f;fill-opacity:1;fill-rule:nonzero;stroke:none"
         d="m 76.0243,24.2637 v 5.5792 l 7.2273,1.2396 v 50.8164 l -7.2273,1.2398 v 5.6243 h 7.2273 8.7239 7.2119 V 83.1387 L 91.9755,81.8989 V 31.0825 h 22.4067 l 0.6653,7.3936 h 7.4387 V 24.2637 Z" /><path
         id="path18"
         style="fill:#201f1f;fill-opacity:1;fill-rule:nonzero;stroke:none"
         d="m 246.3673,56.0296 c 0,-9.3892 -2.6912,-17.1907 -8.089,-23.3898 -5.3824,-6.1988 -12.3675,-9.2985 -20.925,-9.3135 -8.3308,0.015 -15.0891,3.1147 -20.2904,9.3135 -5.201,6.1991 -7.8015,14.0006 -7.8015,23.3898 v 0.9221 c 0,9.3592 2.6005,17.1607 7.8015,23.3898 5.2013,6.2291 11.9596,9.3439 20.2904,9.3439 8.5575,0 15.5426,-3.1148 20.925,-9.3439 5.3978,-6.2291 8.089,-14.0306 8.089,-23.3898 z m -8.7239,1.0128 c 0,7.4994 -1.7992,13.6228 -5.3825,18.3552 -3.5985,4.7475 -8.5575,7.1212 -14.9076,7.1212 -6.0781,0 -10.8256,-2.389 -14.2427,-7.1365 -3.4169,-4.7625 -5.1103,-10.8709 -5.1103,-18.3399 v -1.0128 c 0,-7.5597 1.6934,-13.7134 5.1103,-18.4609 3.4171,-4.7322 8.1646,-7.1059 14.2427,-7.1059 6.4408,0 11.4301,2.3584 14.968,7.0909 3.5533,4.7171 5.3221,10.8859 5.3221,18.4759 z" /><path
         id="path20"
         style="fill:#201f1f;fill-opacity:1;fill-rule:nonzero;stroke:none"
         d="m 154.6191,88.763 c 8.4215,0 15.1952,-2.6005 20.3055,-7.7865 5.1253,-5.1707 7.6957,-11.8687 7.6957,-20.0784 v -8.8146 c 0,-8.2403 -2.5704,-14.938 -7.6957,-20.0937 -5.1103,-5.1559 -11.884,-7.7261 -20.3055,-7.7261 h -27.0187 v 5.5792 l 7.2273,1.2396 v 50.8164 l -7.2273,1.2398 v 5.6243 h 7.2273 z M 143.5516,81.8989 V 31.0825 h 11.0675 c 5.9721,0 10.6742,1.9655 14.1064,5.8966 3.4472,3.9311 5.1709,8.9657 5.1709,15.1044 v 8.9053 c 0,6.0778 -1.7237,11.0823 -5.1709,15.0134 -3.4322,3.9311 -8.1343,5.8967 -14.1064,5.8967 z" /><path
         id="path22"
         style="fill:#201f1f;fill-opacity:1;fill-rule:nonzero;stroke:none"
         d="m 273.9223,29.8429 7.2272,1.2396 v 50.8164 l -7.2272,1.2398 v 5.6243 h 49.8339 V 73.2506 h -7.4387 l -0.7106,8.6483 H 289.8734 V 59.6582 h 24.9321 V 52.7939 H 289.8734 V 31.0825 l 7.2119,-1.2396 v -5.5792 h -23.163 z" /><path
         id="path24"
         style="fill:#201f1f;fill-opacity:1;fill-rule:nonzero;stroke:none"
         d="m 328.765,24.2637 v 5.5792 l 7.2273,1.2396 v 50.8164 l -7.2273,1.2398 v 5.6243 h 49.5165 V 73.2506 h -7.4846 l -0.7104,8.6483 H 344.7162 V 61.0342 h 24.6747 V 54.1698 H 344.7162 V 31.0825 h 25.9146 l 0.6953,8.6332 h 7.4543 v -15.452 z" /><path
         id="path26"
         style="fill:#201f1f;fill-opacity:1;fill-rule:nonzero;stroke:none"
         d="m 448.1073,75.9115 -0.2268,0.0454 -20.8649,-51.6932 h -5.7907 l -20.8646,51.6478 -0.2268,-0.0453 0.892,-26.081 V 31.0825 l 7.2119,-1.2396 v -5.5792 h -23.163 v 5.5792 l 7.2272,1.2396 v 50.8164 l -7.2272,1.2398 v 5.6243 h 7.2272 11.1581 l 20.5472,-52.4039 h 0.2721 l 20.5019,52.4039 h 18.4308 v -5.6243 l -7.2272,-1.2398 V 31.0825 l 7.2272,-1.2396 v -5.5792 h -23.163 v 5.5792 l 7.2119,1.2396 v 18.7027 z" /><path
         id="path28"
         style="fill:#201f1f;fill-opacity:1;fill-rule:nonzero;stroke:none"
         d="m 467.208,29.8429 4.7928,0.6653 22.5431,58.2548 h 7.484 l 22.15,-58.2548 4.7324,-0.6653 v -5.5792 h -18.506 v 5.5792 l 4.8682,0.8467 -4.2485,11.8686 h -25.8239 l -4.3847,-11.8686 4.8685,-0.8467 V 24.2637 H 467.208 Z m 20.6836,20.018 h 20.4715 L 498.354,77.5446 h -0.2722 z" /><path
         id="path30"
         style="fill:#201f1f;fill-opacity:1;fill-rule:nonzero;stroke:none"
         d="M 584.4691,88.763 V 74.4902 h -7.4387 l -0.6653,7.4087 H 562.062 V 31.0825 l 7.2122,-1.2396 v -5.5792 h -23.163 v 5.5792 l 7.2272,1.2396 V 81.8989 H 538.99 l -0.6199,-7.4087 h -7.4994 V 88.763 Z" /></g></g></svg>